<?xml version="1.0" standalone="no"?>
<!DOCTYPE svg PUBLIC "-//W3C//DTD SVG 20010904//EN"
 "http://www.w3.org/TR/2001/REC-SVG-20010904/DTD/svg10.dtd">
<svg version="1.0" xmlns="http://www.w3.org/2000/svg"
 width="400.000000pt" height="400.000000pt" viewBox="0 0 400.000000 400.000000"
 preserveAspectRatio="xMidYMid meet">
<metadata>
Created by potrace 1.11, written by Peter Selinger 2001-2013
</metadata>
<g transform="translate(0.000000,400.000000) scale(0.100000,-0.100000)"
fill="#000000" stroke="none">
<path d="M2035 3681 c-5 -8 -40 -31 -134 -86 -20 -12 -113 -70 -161 -100 -19
-13 -114 -71 -210 -130 -96 -59 -193 -120 -215 -135 -22 -15 -45 -29 -50 -31
-12 -4 -331 -202 -412 -256 l-53 -34 0 -475 c0 -372 3 -474 13 -474 6 0 28 10
47 22 34 20 413 244 616 364 l102 59 6 50 c3 28 6 86 6 131 l0 81 48 27 c51
29 188 113 237 144 17 11 91 57 165 103 74 45 172 107 217 136 45 29 85 53 88
53 3 0 27 15 53 33 27 17 88 57 136 87 102 64 133 87 126 92 -3 3 -70 43 -150
90 -80 47 -210 125 -290 172 -139 83 -172 97 -185 77z"/>
<path d="M2330 2740 c-96 -60 -188 -118 -205 -129 -16 -10 -68 -43 -114 -72
l-83 -53 6 -116 c4 -63 11 -211 16 -328 5 -117 12 -217 15 -222 3 -5 18 -15
33 -23 15 -7 45 -24 67 -37 22 -12 130 -73 240 -135 110 -61 209 -117 220
-124 22 -14 37 -6 170 79 33 22 94 60 135 85 41 25 102 64 135 85 33 21 84 53
113 69 41 25 52 36 52 57 0 62 -31 650 -35 661 -2 7 -41 31 -87 54 -46 23
-135 70 -198 104 -212 115 -289 155 -297 155 -5 0 -87 -50 -183 -110z"/>
<path d="M1520 2111 c-25 -15 -133 -79 -240 -141 -107 -62 -233 -136 -280
-163 -47 -27 -114 -67 -150 -87 -36 -21 -141 -82 -235 -137 -93 -55 -191 -112
-217 -127 -27 -15 -48 -29 -48 -31 0 -4 69 -116 122 -198 15 -23 41 -64 58
-92 56 -90 272 -430 313 -492 21 -31 22 -31 52 -16 16 9 48 28 70 43 22 15
101 65 175 110 74 46 158 97 185 115 161 102 211 133 410 256 66 41 141 87
167 104 26 16 79 50 117 74 39 24 71 47 71 51 0 7 -265 146 -398 209 -60 29
-56 17 -71 196 -25 282 -34 355 -45 355 -6 0 -31 -13 -56 -29z"/>
<path d="M3405 1650 c-88 -54 -221 -135 -295 -180 -74 -45 -223 -135 -330
-200 -107 -65 -212 -127 -232 -138 l-38 -19 -114 54 -115 53 -108 -66 c-59
-36 -133 -82 -163 -101 -30 -20 -71 -46 -90 -58 -19 -12 -96 -60 -170 -105
-174 -108 -230 -143 -230 -146 0 -3 199 -108 445 -234 110 -56 246 -127 303
-157 l103 -54 80 48 c44 26 95 57 113 68 18 11 66 40 107 64 41 24 97 58 124
76 28 18 84 52 125 77 41 25 172 104 290 176 118 72 260 158 316 191 55 33
107 67 114 76 16 19 8 120 -36 463 -13 106 -24 197 -24 202 0 6 -3 10 -7 9 -5
-1 -80 -45 -168 -99z"/>
</g>
</svg>
