<?xml version="1.0" standalone="no"?>
<!DOCTYPE svg PUBLIC "-//W3C//DTD SVG 20010904//EN"
 "http://www.w3.org/TR/2001/REC-SVG-20010904/DTD/svg10.dtd">
<svg version="1.0" xmlns="http://www.w3.org/2000/svg"
 width="300.000000pt" height="300.000000pt" viewBox="0 0 300.000000 300.000000"
 preserveAspectRatio="xMidYMid meet">
<metadata>
Created by potrace 1.11, written by Peter Selinger 2001-2013
</metadata>
<g transform="translate(0.000000,300.000000) scale(0.100000,-0.100000)"
fill="#000000" stroke="none">
<path d="M2502 2909 c-32 -12 -40 -56 -14 -81 41 -41 104 6 79 59 -11 25 -34
33 -65 22z"/>
<path d="M2763 2898 c-13 -6 -23 -18 -24 -27 -6 -96 -2 -166 9 -182 18 -26 68
-25 82 1 6 11 10 35 10 52 0 18 0 55 1 83 1 39 -3 53 -21 67 -25 20 -27 21
-57 6z"/>
<path d="M2225 2879 c-21 -17 -25 -27 -20 -48 3 -14 5 -74 5 -133 -1 -104 0
-107 25 -124 23 -15 27 -15 50 0 24 16 26 22 25 104 0 48 0 110 0 137 -1 38
-5 54 -21 68 -27 22 -31 21 -64 -4z"/>
<path d="M1123 2879 c-44 -16 -50 -116 -10 -144 62 -43 95 14 72 121 -6 25
-31 34 -62 23z"/>
<path d="M445 2863 c-4 -10 -9 -55 -10 -101 -2 -46 -6 -86 -9 -89 -3 -4 1 -15
11 -25 21 -23 69 -24 81 0 16 30 23 102 12 122 -8 14 -7 26 0 41 9 16 8 26 -5
45 -19 29 -69 33 -80 7z"/>
<path d="M1335 2854 c-15 -11 -19 -24 -17 -59 3 -46 4 -97 3 -175 -1 -50 -1
-95 0 -125 0 -11 0 -26 0 -32 -1 -7 -1 -21 -1 -30 0 -10 0 -27 -1 -38 -7 -136
3 -193 39 -206 23 -9 30 -7 49 16 18 20 22 34 17 58 -12 62 -12 130 -1 148 8
12 8 25 1 41 -6 13 -9 41 -7 63 9 109 1 321 -12 334 -19 17 -50 20 -70 5z"/>
<path d="M1108 2698 c-24 -19 -33 -182 -12 -203 19 -19 58 -19 73 -1 17 20 26
168 12 194 -13 25 -48 29 -73 10z"/>
<path d="M2765 2638 c-11 -6 -23 -16 -26 -21 -10 -15 -1 -199 10 -210 6 -6 5
-15 -5 -24 -25 -25 -10 -137 22 -160 21 -15 53 -8 71 14 14 19 10 102 -7 134
-8 14 -9 24 -2 28 8 5 15 98 13 184 0 39 -46 71 -76 55z"/>
<path d="M1597 2619 c-26 -37 1 -84 45 -77 12 2 29 15 37 30 14 24 14 28 -3
47 -24 27 -61 27 -79 0z"/>
<path d="M459 2596 c-45 -22 -31 -129 19 -147 35 -13 59 18 60 79 1 29 -4 54
-11 59 -23 18 -44 21 -68 9z"/>
<path d="M2215 2499 c-16 -17 -17 -24 -7 -51 6 -18 8 -37 3 -47 -5 -9 -6 -25
-4 -36 6 -25 6 -27 0 -145 -2 -52 0 -103 5 -112 11 -22 61 -24 78 -3 9 11 22
120 20 180 -1 43 -9 113 -15 126 -3 10 -2 20 4 24 30 18 -8 85 -47 85 -11 0
-27 -9 -37 -21z"/>
<path d="M446 2384 c-18 -17 -23 -129 -7 -139 6 -3 4 -16 -4 -31 -28 -54 31
-109 75 -69 21 19 27 69 11 80 -6 3 -4 20 5 42 16 38 12 96 -8 121 -14 17 -53
15 -72 -4z"/>
<path d="M1123 2359 c-26 -9 -32 -27 -32 -99 0 -30 -1 -100 -2 -155 -2 -159
-2 -163 26 -181 23 -15 27 -15 50 0 24 16 25 22 26 109 0 145 -1 161 -11 171
-6 6 -5 16 1 27 11 22 15 92 5 107 -12 21 -40 30 -63 21z"/>
<path d="M2747 2185 c-11 -10 -14 -30 -11 -67 3 -29 4 -62 4 -73 0 -11 0 -29
1 -40 0 -28 0 -34 -5 -90 -4 -37 -1 -54 11 -67 30 -33 94 -14 94 27 0 57 -9
152 -16 168 -4 9 -3 23 3 30 16 19 18 60 3 95 -11 25 -19 32 -41 32 -16 0 -35
-7 -43 -15z"/>
<path d="M447 2082 c-12 -13 -15 -34 -12 -90 2 -40 9 -79 15 -87 9 -11 9 -18
-4 -30 -9 -9 -16 -24 -17 -33 -3 -55 0 -83 10 -96 8 -10 9 -21 1 -41 -11 -28
-4 -45 29 -71 11 -9 10 -12 -7 -16 -26 -7 -38 -51 -23 -84 7 -17 19 -24 39
-24 57 0 76 65 30 103 -18 15 -20 20 -7 28 7 5 17 9 21 9 17 0 18 43 3 67 -12
18 -14 28 -6 36 15 15 14 110 -1 125 -10 10 -10 15 2 22 11 7 15 29 15 90 0
69 -3 84 -20 96 -25 19 -49 18 -68 -4z"/>
<path d="M1344 2072 c-22 -15 -30 -45 -24 -93 7 -53 13 -63 47 -73 24 -8 69
27 58 44 -3 5 -6 30 -7 55 0 34 -6 49 -21 60 -24 17 -37 18 -53 7z"/>
<path d="M1348 1868 c-25 -21 -28 -45 -7 -72 17 -22 23 -24 49 -14 17 5 30 13
31 16 0 4 2 17 5 29 2 15 -4 27 -18 38 -27 18 -39 19 -60 3z"/>
<path d="M2230 1852 c-45 -36 -1 -104 51 -79 31 16 39 65 13 84 -24 18 -38 16
-64 -5z"/>
<path d="M1111 1844 c-19 -14 -22 -23 -18 -50 3 -19 2 -47 -2 -62 -5 -16 -5
-36 0 -45 6 -9 6 -18 0 -21 -5 -4 -8 -58 -5 -124 3 -100 6 -119 22 -132 18
-15 18 -16 -4 -33 -21 -15 -22 -22 -18 -113 2 -53 6 -105 9 -115 5 -15 1 -19
-17 -19 -13 0 -30 -6 -37 -12 -10 -11 -11 -10 -6 5 12 29 -3 64 -48 109 -40
41 -110 85 -132 83 -21 -1 -43 -21 -47 -40 -5 -32 -32 -47 -63 -35 -34 13 -31
13 -52 -9 -27 -27 -71 -33 -78 -10 -6 19 -40 33 -66 27 -11 -2 -14 10 -12 64
2 61 0 69 -20 83 -18 11 -31 12 -60 4 -42 -11 -57 -45 -39 -82 7 -12 13 -41
16 -63 l4 -42 -29 11 c-30 12 -37 34 -19 67 13 25 -3 66 -29 75 -29 9 -57 -10
-64 -42 -3 -16 -15 -32 -29 -38 -17 -7 -23 -18 -23 -42 0 -22 -3 -29 -11 -22
-7 5 -23 5 -43 -2 -17 -6 -40 -9 -51 -6 -28 7 -54 -26 -46 -60 4 -15 7 -41 6
-58 -14 -481 -14 -948 0 -974 16 -30 49 -36 170 -31 8 0 594 0 1303 -1 1175
-1 1289 0 1312 15 14 9 25 24 26 34 1 19 -1 435 -2 467 0 11 -1 81 0 155 0
121 -3 223 -7 258 -3 18 -44 31 -64 20 -22 -11 -23 -4 -1 28 13 21 15 32 6 55
-10 25 -9 29 7 29 55 0 62 89 8 106 -12 3 -29 13 -36 21 -19 18 -109 8 -135
-15 -17 -15 -18 -15 -14 13 9 60 -57 89 -89 40 -8 -13 -13 -28 -10 -33 3 -5
-8 -9 -24 -8 -20 1 -32 8 -39 24 -14 30 -64 30 -85 1 -24 -35 4 -79 50 -79 14
0 25 -8 29 -20 3 -11 11 -20 16 -20 6 0 8 -4 5 -9 -3 -5 -27 -4 -56 1 -32 6
-56 5 -69 -1 -14 -8 -22 -7 -31 4 -7 8 -18 15 -26 15 -16 0 -37 36 -31 53 2 7
-2 26 -10 44 -8 20 -9 34 -3 38 18 11 11 53 -11 69 l-21 14 21 21 c17 17 21
33 21 90 0 76 -13 101 -54 101 -36 0 -46 -21 -48 -105 -2 -65 0 -79 16 -91 11
-7 24 -11 30 -8 6 4 -2 -5 -17 -18 -20 -16 -28 -31 -26 -48 3 -28 -9 -70 -19
-68 -18 5 -51 -15 -57 -35 -7 -21 -7 -21 -12 -2 -8 33 -33 53 -60 50 -43 -4
-58 -52 -27 -87 14 -14 14 -20 4 -33 -7 -8 -10 -26 -8 -40 6 -30 -7 -43 -15
-15 -3 11 -13 23 -24 26 -10 3 -32 13 -49 21 -24 12 -35 13 -52 4 -31 -17 -70
1 -74 35 -2 20 -14 34 -43 50 -51 30 -61 29 -91 -1 -14 -14 -30 -23 -35 -19
-12 7 -59 -22 -59 -37 0 -20 -56 -67 -80 -67 -14 0 -29 -1 -35 -2 -27 -6 -34
1 -26 23 9 26 4 49 -15 60 -20 12 -17 35 6 42 11 3 21 12 21 18 5 49 -17 77
-60 77 l-26 0 21 18 c33 26 39 57 15 81 -26 26 -53 27 -74 3 -22 -24 -21 -50
0 -75 17 -18 17 -19 0 -28 -9 -6 -17 -15 -17 -20 0 -6 -13 -23 -30 -39 -21
-20 -28 -34 -25 -52 3 -15 -1 -31 -10 -38 -8 -7 -15 -19 -15 -26 0 -10 -5 -11
-23 -3 -31 14 -31 85 1 117 12 12 22 28 22 35 0 25 -31 57 -56 57 -27 0 -31
12 -10 29 10 9 13 40 12 131 -1 65 -5 122 -8 125 -3 4 0 18 7 32 7 14 11 35 8
47 -3 11 -4 35 -4 53 1 22 -5 36 -21 47 -28 20 -28 20 -57 0z m-834 -687 c-7
-21 -18 -34 -29 -34 -16 -2 -17 0 -3 13 15 15 19 28 16 51 -1 7 4 10 12 7 11
-4 12 -12 4 -37z m2497 18 c3 -8 1 -15 -4 -15 -6 0 -10 7 -10 15 0 8 2 15 4
15 2 0 6 -7 10 -15z m-558 -34 c-15 -9 -29 -26 -32 -38 -8 -32 -40 -30 -48 3
-9 34 6 51 45 52 17 0 33 3 36 6 3 3 10 3 16 -1 5 -3 -2 -13 -17 -22z"/>
<path d="M1567 1807 c-9 -7 -17 -19 -18 -27 -4 -18 10 -60 19 -61 4 0 15 -2
25 -4 20 -4 57 27 57 48 0 38 -54 66 -83 44z"/>
<path d="M1335 1727 c-8 -11 -12 -30 -9 -42 3 -11 0 -33 -5 -48 -9 -23 -7 -31
9 -47 40 -40 91 -14 88 43 -1 18 1 41 5 53 16 47 -59 83 -88 41z"/>
<path d="M2221 1724 c-29 -21 -27 -60 4 -80 31 -20 63 -10 71 23 13 49 -35 84
-75 57z"/>
<path d="M2757 1597 c-25 -18 -34 -119 -12 -141 20 -20 59 -21 74 -2 20 24 23
117 4 138 -19 21 -42 23 -66 5z"/>
<path d="M214 1567 c-26 -14 -33 -27 -28 -51 9 -47 64 -60 89 -22 29 44 -16
98 -61 73z"/>
<path d="M519 1496 c-28 -20 -32 -53 -9 -76 27 -27 61 -22 77 10 10 20 10 29
0 44 -18 26 -49 36 -68 22z"/>
<path d="M116 1459 c-23 -33 0 -79 40 -79 22 0 54 33 54 57 0 19 -30 43 -55
43 -13 0 -31 -10 -39 -21z"/>
<path d="M324 1459 c-36 -40 16 -105 61 -75 26 17 31 53 10 76 -20 22 -50 22
-71 -1z"/>
<path d="M1653 1370 c-33 -13 -32 -64 1 -85 51 -34 103 39 56 77 -25 20 -26
20 -57 8z"/>
<path d="M1943 1358 c-32 -41 -12 -88 38 -88 22 0 32 6 39 26 13 34 13 40 -6
58 -19 19 -58 21 -71 4z"/>
</g>
</svg>
